Coordinates
version=1
nRows=16
nColumns=36
inDegrees=yes

Units are S.I. units (second, meters, Newtons, ...)
If the header above contains a line with 'inDegrees', this indicates whether rotational values are in degrees (yes) or radians (no).

endheader
time	pelvis_tilt	pelvis_list	pelvis_rotation	pelvis_tx	pelvis_ty	pelvis_tz	hip_flexion_r	hip_adduction_r	hip_rotation_r	knee_angle_r	knee_angle_r_beta	ankle_angle_r	subtalar_angle_r	mtp_angle_r	hip_flexion_l	hip_adduction_l	hip_rotation_l	knee_angle_l	knee_angle_l_beta	ankle_angle_l	subtalar_angle_l	mtp_angle_l	lumbar_extension	lumbar_bending	lumbar_rotation	arm_flex_r	arm_add_r	arm_rot_r	elbow_flex_r	pro_sup_r	arm_flex_l	arm_add_l	arm_rot_l	elbow_flex_l	pro_sup_l
      5.08333330	    -38.72513373	    -10.80509797	     16.24874678	      1.09778948	      0.57121658	      0.19364011	    114.68478264	    -21.90966037	      1.50316519	     95.33888140	      1.66397739	     22.71100671	     -4.39258479	     -7.49999987	    111.63365035	     -9.25962516	     -1.58287046	     93.42159563	      1.63051444	     26.66267730	     -2.68785293	     -7.49999987	    -23.69061705	      2.53844833	      6.12766305	     87.05988299	    -10.97929956	     74.77556444	    119.66460212	     75.75770586	     98.66119257	     10.79912447	     78.23326996	     98.95900553	     91.03714080
      5.10000000	    -38.52129515	    -10.95364095	     16.46084553	      1.10522696	      0.57287914	      0.19440470	    114.96893450	    -22.03671390	      1.43431327	     95.76135046	      1.67135086	     22.64433898	     -4.51637123	     -7.49999987	    111.99958198	     -9.32283468	     -1.56895927	     93.80330623	      1.63717654	     26.40058655	     -2.70045667	     -7.49999987	    -24.27156583	      2.43157080	      6.33391915	     86.54640266	    -10.76641124	     75.09932117	    119.66415365	     75.71900222	     98.25988460	     10.85100087	     78.55970119	     98.94828150	     91.04407400
      5.11666670	    -38.75071296	    -11.38672316	     16.65820844	      1.10301741	      0.57230631	      0.18858576	    115.35157685	    -22.31884834	      1.13431857	     95.79483343	      1.67193525	     22.36992392	     -5.11024477	     -7.49999987	    112.59649601	     -9.19584566	     -1.48989980	     93.87432439	      1.63841604	     25.88284451	     -3.06836777	     -7.49999987	    -23.96272123	      2.70315828	      5.92461279	     85.85255566	    -11.61502432	     75.26466261	    120.48158667	     75.42555383	     97.82435666	     11.44725969	     79.12035750	     98.51681829	     91.07107949
      5.13333330	    -38.83606387	    -11.62411791	     16.76743738	      1.09828825	      0.57334992	      0.19141159	    115.37199652	    -22.40909887	      0.86713347	     95.58078157	      1.66819934	     22.08356338	     -5.45478292	     -7.49999987	    112.76367317	     -9.29110265	     -1.57946964	     93.80665167	      1.63723493	     25.53916217	     -3.25279071	     -7.49999987	    -23.92302508	      2.44187312	      6.17947847	     85.52359917	    -12.54726692	     74.67951055	    120.89794490	     74.50957901	     98.28797586	     12.15668013	     79.34958075	     97.50024140	     90.95638879
      5.15000000	    -38.81744730	    -11.84185290	     17.00812830	      1.09526619	      0.57584146	      0.18543540	    115.20798550	    -22.73253741	      0.56665106	     95.26268692	      1.66264754	     21.84911674	     -5.66241836	     -7.49999987	    112.72168667	     -9.18612032	     -1.74432566	     93.60638546	      1.63373963	     25.27777854	     -3.38520686	     -7.49999987	    -23.97598840	      2.50862266	      5.79563230	     86.10455750	    -13.20976847	     73.97911150	    124.57552030	     73.82358764	     99.07576589	     13.40413969	     78.25111835	     98.59458010	     90.87770266
      5.16666670	    -38.73063332	    -11.88700630	     17.12976966	      1.09589159	      0.58348863	      0.18431546	    114.62550090	    -22.85186351	      0.25854289	     94.60031618	      1.65108699	     21.74141031	     -5.67761801	     -7.49999987	    112.25272160	     -9.12744621	     -1.94438079	     93.09073476	      1.62473982	     25.20482324	     -3.41960576	     -7.49999987	    -23.86506174	      2.53453891	      5.40325476	     85.55960056	    -13.40619836	     74.25605396	    124.57892959	     73.78158931	     99.00488859	     13.54854864	     78.25807510	     98.78201800	     90.83100673
      5.18333330	    -38.88814210	    -11.86480090	     17.34943656	      1.10908733	      0.58962082	      0.17203858	    114.01793402	    -23.22517595	      0.09604348	     93.86914007	      1.63832556	     21.75408703	     -5.70715518	     -7.49999987	    111.58085837	     -8.72773308	     -2.20264229	     92.34379122	      1.61170320	     25.28546025	     -3.47664382	     -7.49999987	    -23.36298960	      2.59997568	      4.67820530	     83.64706239	    -13.75957055	     75.96281848	    125.90768965	     73.60711725	     97.51277876	     14.26347698	     78.52214432	     99.64214996	     90.40493301
      5.20000000	    -38.96781273	    -11.76532016	     17.28956649	      1.09781088	      0.59157092	      0.17405223	    113.36164286	    -23.25824698	     -0.07788324	     92.99592268	      1.62308504	     21.66531419	     -5.60532581	     -7.49999987	    110.91487415	     -8.54466567	     -2.36108368	     91.63394807	      1.59931410	     25.46940753	     -3.54834709	     -7.49999987	    -22.51635208	      2.54737632	      4.46339638	     83.46671667	    -13.91162373	     76.14251173	    125.91772065	     73.60335363	     97.86557962	     14.51720640	     78.08617611	     99.72935429	     90.39386465
      5.21666670	    -38.82622737	    -11.56922261	     17.39164647	      1.09407850	      0.60246099	      0.18449656	    112.39914029	    -23.25965800	     -0.21097552	     91.94227940	      1.60469550	     21.15973778	     -5.47583234	     -7.49999987	    109.90612827	     -8.22251190	     -2.52142799	     90.62601452	      1.58172234	     25.46046348	     -3.85757953	     -7.49999987	    -22.19854725	      2.31196202	      4.35408467	     83.96096590	    -13.39844919	     76.58961894	    124.42599555	     71.54423107	     98.63695289	     13.45589557	     77.79985091	    100.81815605	     86.22556985
      5.23333330	    -38.83957133	    -11.49338294	     17.27353308	      1.12062143	      0.61759204	      0.17527569	    110.80146943	    -23.14619447	     -0.73269066	     90.48446261	      1.57925179	     21.34510695	     -5.30588861	     -7.49999987	    108.48742608	     -8.01928912	     -2.44232051	     89.28229211	      1.55826996	     26.00239823	     -3.30949721	     -7.49999987	    -21.63320035	      2.37708003	      4.34367498	     82.46048694	    -12.23173180	     80.04952350	    124.22542969	     74.48844194	     95.58901769	     13.26920309	     77.45261987	    101.93423974	     93.30840694
      5.25000000	    -38.85459557	    -11.34237283	     17.10188692	      1.11934554	      0.63381276	      0.17502835	    108.74532721	    -22.88015183	     -1.24879902	     88.56884488	      1.54581796	     21.44446142	     -5.24954119	     -7.49999987	    106.58392442	     -7.89533743	     -2.44882914	     87.53723840	      1.52781303	     26.48094701	     -2.81985371	     -7.49999987	    -21.39005595	      2.13123597	      4.70472631	     82.00781876	    -12.43063711	     80.51848612	    124.79541114	     74.44429329	     94.21809816	     13.42610723	     77.89177071	    102.24986160	     92.59219864
      5.26666670	    -38.72512136	    -11.11643695	     16.90538192	      1.11869769	      0.64117055	      0.17467320	    106.49053385	    -22.50581695	     -1.73753328	     86.54138848	      1.51043217	     21.48961147	     -5.21025104	     -7.49999987	    104.46395086	     -7.87982258	     -2.54468559	     85.67602796	      1.49532878	     26.94751989	     -2.23388571	     -7.49999987	    -20.73631594	      1.69525590	      4.66191798	     81.98428637	    -11.60309736	     81.33062883	    125.75446508	     74.42805069	     94.01475286	     13.87183188	     77.35568995	    103.26159138	     92.05712538
      5.28333330	    -38.32072327	    -10.99179275	     16.70534056	      1.11972014	      0.65020907	      0.18063163	    104.05163413	    -21.93630694	     -2.25204613	     84.52820880	      1.47529555	     21.39025697	     -5.16782511	     -7.49999987	    102.28293586	     -7.90832475	     -2.36037848	     83.85658844	      1.46357357	     27.25608607	     -1.65929900	     -7.49999987	    -20.27824829	      1.47066939	      4.68020700	     81.82865987	    -10.81439593	     79.62170651	    125.31215668	     74.58354107	     93.84854921	     13.06453288	     76.57204429	    104.86499728	     92.29699187
      5.30000000	    -38.21754100	    -10.88739809	     16.51671493	      1.12019544	      0.67395458	      0.18001816	    101.58832714	    -21.45719118	     -2.95957940	     81.99466447	      1.43107686	     21.20181142	     -5.03697509	     -7.49999987	    100.07621364	     -7.91794051	     -2.42253017	     81.53364291	      1.42303052	     27.04048526	     -1.22315660	     -7.49999987	    -19.99399329	      1.34044349	      4.54555778	     80.90303898	    -10.18791941	     79.52071710	    124.43145550	     73.75198212	     93.28975743	     12.40731733	     77.34939446	    105.04186377	     90.26601767
      5.31666670	    -37.88889633	    -10.69003049	     16.14731595	      1.13038031	      0.68226767	      0.17869888	     98.87040982	    -20.69117004	     -3.57670816	     79.42546158	      1.38623581	     21.03753970	     -5.07600313	     -7.49999987	     97.48945934	     -8.10816713	     -2.36728161	     79.17963006	      1.38194525	     26.99643025	     -0.77791365	     -7.49999987	    -19.36174176	      0.97916736	      4.43127076	     79.10795122	     -9.24367304	     77.86988162	    124.15192627	     78.85551471	     91.88172006	     11.83623696	     76.28056421	    106.51484484	     95.61575833
      5.33333330	    -37.41847144	    -10.42860862	     15.82570134	      1.13443296	      0.69306145	      0.17417854	     96.05129514	    -20.01719486	     -4.16117101	     76.86826936	      1.34160439	     20.92667596	     -5.01797618	     -7.49999987	     94.73293096	     -8.25775293	     -2.37178155	     76.82590371	      1.34086497	     27.00921600	     -0.13457160	     -7.49999987	    -18.72042243	      0.60680869	      3.84722588	     76.98191278	     -8.63210735	     77.77044719	    125.64193934	     78.92988264	     90.51528442	     11.70728872	     75.90889802	    107.74649963	     95.66800077
